<svg height="511pt" viewBox="-94 1 511 511.99999" width="511pt" xmlns="http://www.w3.org/2000/svg"><path d="m54.394531 197.613281h-17.964843c-14.882813 0-26.949219-12.0625-26.949219-26.945312 0-14.882813 12.066406-26.949219 26.949219-26.949219h17.964843zm0 0" fill="#cc9c72"/><path d="m269.972656 143.71875h17.964844c14.882812 0 26.949219 12.066406 26.949219 26.949219 0 14.882812-12.066407 26.945312-26.949219 26.945312h-17.964844zm0 0" fill="#cc9c72"/><path d="m90.324219 287.4375h143.71875c49.609375 0 89.824219 40.21875 89.824219 89.824219v134.738281h-323.367188v-134.738281c0-49.605469 40.214844-89.824219 89.824219-89.824219zm0 0" fill="#c1272d"/><path d="m.5 440.140625h62.878906v71.859375h-62.878906zm0 0" fill="#f2c09a"/><path d="m260.992188 440.140625h62.875v71.859375h-62.875zm0 0" fill="#f2c09a"/><path d="m54.394531 386.246094h17.964844v125.753906h-17.964844zm0 0" fill="#b02429"/><path d="m252.007812 386.246094h17.964844v125.753906h-17.964844zm0 0" fill="#b02429"/><path d="m153.203125 368.28125h17.964844v71.859375h-17.964844zm0 0" fill="#b02429"/><path d="m225.0625 303.195312-62.878906 74.066407-62.875-74.066407zm0 0" fill="#f2c09a"/><path d="m99.308594 303.195312v65.085938l62.875 8.980469zm0 0" fill="#971f23"/><path d="m225.0625 303.195312v65.085938l-62.878906 8.980469zm0 0" fill="#971f23"/><path d="m179.160156 314.386719h-33.953125c-15.859375-.046875-31.480469-3.882813-45.558593-11.191407h-.339844l31.339844 36.917969c4.816406.765625 9.683593 1.175781 14.558593 1.21875h33.953125c4.878906-.042969 9.746094-.453125 14.5625-1.21875l31.339844-36.917969h-.34375c-14.074219 7.308594-29.695312 11.144532-45.558594 11.191407zm0 0" fill="#cc9c72"/><path d="m189.132812 404.210938h17.964844v17.964843h-17.964844zm0 0" fill="#fbb03b"/><path d="m179.160156 314.386719h-33.953125c-29.132812 0-56.8125-12.730469-75.765625-34.851563-15.507812-18.085937-24.027344-41.121094-24.027344-64.945312v-141.292969c0-40.480469 32.8125-73.296875 73.296876-73.296875h86.949218c40.480469 0 73.296875 32.816406 73.296875 73.296875v141.292969c0 23.824218-8.523437 46.859375-24.027343 64.945312-18.957032 22.121094-46.636719 34.851563-75.769532 34.851563zm0 0" fill="#f2c09a"/><g fill="#a67c52"><path d="m153.203125 215.578125h8.980469c9.921875 0 17.964844-8.042969 17.964844-17.964844v-35.929687h44.914062c4.960938 0 8.980469-4.019532 8.980469-8.980469s-4.019531-8.984375-8.980469-8.984375h-44.914062c-9.921876 0-17.964844 8.042969-17.964844 17.964844v35.929687h-8.980469c-4.960937 0-8.984375 4.023438-8.984375 8.984375 0 4.960938 4.023438 8.980469 8.984375 8.980469zm0 0"/><path d="m126.253906 179.648438c0 4.960937-4.019531 8.984374-8.980468 8.984374-4.960938 0-8.984376-4.023437-8.984376-8.984374 0-4.960938 4.023438-8.980469 8.984376-8.980469 4.960937 0 8.980468 4.019531 8.980468 8.980469zm0 0"/><path d="m216.078125 179.648438c0 4.960937-4.019531 8.984374-8.980469 8.984374-4.960937 0-8.984375-4.023437-8.984375-8.984374 0-4.960938 4.023438-8.980469 8.984375-8.980469 4.960938 0 8.980469 4.019531 8.980469 8.980469zm0 0"/><path d="m99.308594 161.683594h35.929687c4.960938 0 8.980469-4.019532 8.980469-8.980469s-4.019531-8.984375-8.980469-8.984375h-35.929687c-4.960938 0-8.984375 4.023438-8.984375 8.984375s4.023437 8.980469 8.984375 8.980469zm0 0"/></g><path d="m117.273438 242.527344-17.964844 60.539062c14.167968 7.398438 29.914062 11.28125 45.898437 11.320313h33.953125c15.988282-.039063 31.730469-3.921875 45.902344-11.320313l-17.964844-60.539062zm0 0" fill="#534741"/><path d="m205.660156 0h-86.949218c-40.484376 0-73.296876 32.816406-73.296876 73.296875v43.476563h17.964844c29.761719 0 53.894532-24.132813 53.894532-53.894532 0 29.761719 24.128906 53.894532 53.894531 53.894532h107.789062v-43.476563c0-40.480469-32.816406-73.296875-73.296875-73.296875zm0 0" fill="#534741"/><path d="m171.167969 287.4375h-17.964844c-4.960937 0-8.984375-4.019531-8.984375-8.980469 0-4.960937 4.023438-8.984375 8.984375-8.984375h17.964844c4.960937 0 8.980469 4.023438 8.980469 8.984375 0 4.960938-4.019532 8.980469-8.980469 8.980469zm0 0" fill="#f2c09a"/></svg>