<svg height="512pt" viewBox="-72 0 512 512.00156" width="512pt" xmlns="http://www.w3.org/2000/svg"><path d="m335.226562 372.5c-7.253906-23.878906-31.632812-54.089844-70.652343-54.089844h-3.429688c-19.582031 0-35.457031-15.824218-35.464843-35.347656l-.003907-6.894531c0-12.847657-7.648437-23.253907-17.085937-23.253907h-50.042969c-9.4375 0-17.085937 10.40625-17.085937 23.253907v6.882812c0 19.527344-15.878907 35.359375-35.464844 35.359375h-3.433594c-39.019531 0-60.675781 26.375-70.652344 54.089844zm0 0" fill="#ffe1d6"/><path d="m264.574219 318.410156h-3.429688c-19.582031 0-35.457031-15.824218-35.464843-35.347656l-.003907-6.894531c0-12.847657-7.648437-23.253907-17.085937-23.253907h-43.46875c9.4375 0 17.085937 10.40625 17.085937 23.253907l.003907 6.894531c.007812 19.523438 15.882812 35.347656 35.464843 35.347656h3.429688c39.019531 0 63.398437 30.210938 70.652343 54.089844h43.46875c-7.253906-23.878906-31.632812-54.089844-70.652343-54.089844zm0 0" fill="#ffcdcd"/><path d="m105.996094 318.410156h-3.433594c-39.019531 0-60.675781 26.375-70.652344 54.089844l-23.109375 96.671875c-4.246093 17.765625 9.339844 34.804687 27.75 34.804687h294.035157c18.410156 0 31.996093-17.039062 27.75-34.804687l-23.109376-96.671875c-7.253906-23.878906-31.632812-54.089844-70.652343-54.089844h-3.429688c-13.570312 0-25.355469-7.601562-31.316406-18.765625l-32.351563 48.304688c-6.601562 9.855469-21.191406 9.839843-27.769531-.03125l-32.300781-48.453125c-5.933594 11.261718-17.769531 18.945312-31.410156 18.945312zm0 0" fill="#8a7e88"/><path d="m358.335938 469.171875-23.109376-96.671875c-7.253906-23.878906-31.632812-54.089844-70.652343-54.089844h-3.429688c-13.570312 0-25.355469-7.601562-31.316406-18.765625l-12.589844 18.792969c38.316407.613281 62.28125 30.429688 69.460938 54.0625l23.109375 96.671875c4.246094 17.765625-9.339844 34.804687-27.75 34.804687h48.527344c18.410156 0 31.996093-17.039062 27.75-34.804687zm0 0" fill="#635562"/><path d="m183.566406 6.777344c-115.085937 0-134.574218 150.457031-137.425781 220.144531-.777344 18.921875 14.429687 34.667969 33.398437 34.667969h215.9375c19.503907 0 34.863282-16.59375 33.324219-36-5.574219-70.253906-30.875-218.8125-145.234375-218.8125zm0 0" fill="#e18f54"/><path d="m328.800781 225.589844c-5.574219-70.253906-30.875-218.8125-145.234375-218.8125-13.984375 0-26.546875 2.238281-37.851562 6.265625 82.160156 28.917969 102.257812 150.886719 107.144531 212.546875 1.542969 19.410156-13.820313 36-33.320313 36h75.9375c19.503907 0 34.863282-16.589844 33.324219-36zm0 0" fill="#d67a3a"/><path d="m283.484375 133.949219c-1.238281-.125-4.332031 1.582031-4.332031 1.582031-66.28125 37.878906-135.277344 4.300781-170.492188-19.058594-8.15625-5.410156-19.164062-.355468-20.367187 9.347656-.351563 2.847657-.648438 5.730469-.886719 8.644532-1.230469-.457032-2.488281-.640625-3.753906-.515625-8.285156.84375-13.65625 14.699219-11.992188 30.953125 1.664063 16.257812 9.734375 28.746094 18.019532 27.902344.230468-.023438.457031-.058594.679687-.101563 10.195313 52.34375 41.484375 90.21875 93.210937 90.21875 51.722657 0 83.015626-37.875 93.207032-90.21875.222656.042969.449218.078125.679687.101563 8.285157.84375 16.355469-11.644532 18.019531-27.902344 1.664063-16.253906-3.707031-30.109375-11.992187-30.953125zm0 0" fill="#ffe1d6"/><path d="m283.484375 133.949219c-1.238281-.125-4.332031 1.582031-4.332031 1.582031-12.816406 7.324219-25.734375 11.957031-38.488282 14.527344-.707031 55.625-26.175781 112.179687-74.6875 131.277344 5.578126 1.035156 11.4375 1.585937 17.59375 1.585937 51.722657 0 83.015626-37.875 93.207032-90.21875.222656.042969.449218.078125.679687.101563 8.285157.84375 16.355469-11.644532 18.019531-27.902344 1.664063-16.253906-3.707031-30.109375-11.992187-30.953125zm0 0" fill="#ffcdcd"/><path d="m366.132812 467.308594-23.105468-96.671875c-.039063-.15625-.082032-.3125-.128906-.464844-8.746094-28.792969-36.984376-59.78125-78.324219-59.78125-3.761719 0-7.417969-.074219-10.78125-1-4.414063-1.210937-8.492188-3.550781-11.800781-6.765625-2.050782-1.996094-3.765626-4.269531-5.09375-6.761719-2.121094-3.972656-3.199219-8.28125-3.199219-12.804687l-.003907-5.746094c3.730469-2.292969 7.308594-4.855469 10.710938-7.703125h51.070312c11.539063 0 22.640626-4.855469 30.464844-13.324219 7.804688-8.449218 11.757813-19.867187 10.851563-31.328125-2.769531-34.921875-10.070313-85.957031-29.113281-130.773437-23.664063-55.691406-59.085938-87.347656-105.273438-94.0859378-4.390625-.6445312-8.453125 2.3945318-9.09375 6.7773438-.636719 4.378906 2.394531 8.453125 6.777344 9.09375 40.269531 5.875 71.503906 34.300781 92.828125 84.484375 18.199219 42.835937 25.210937 92.039063 27.886719 125.773437.5625 7.117188-1.796876 13.929688-6.644532 19.175782-4.867187 5.269531-11.5 8.167968-18.683594 8.167968h-35.871093c10.921875-14.402343 19.039062-32.628906 23.824219-53.570312 10.113281-3.433594 18.226562-16.742188 20.023437-34.28125.933594-9.09375-.050781-17.960938-2.765625-24.96875-3.363281-8.671875-9.335938-14.058594-16.394531-14.773438-1.019531-.105468-3.722657-.382812-9.007813 2.527344-.039062.023438-.078125.042969-.113281.066406-10.382813 5.933594-21.371094 10.273438-32.652344 12.902344-4.3125 1.003906-6.996093 5.3125-5.992187 9.628906 1.003906 4.3125 5.320312 6.996094 9.628906 5.992188 12.773438-2.972656 25.1875-7.871094 36.90625-14.558594.074219-.042968.164062-.089844.261719-.140625 1.941406 1.929688 5.425781 9.46875 4.171875 21.691407-1.417969 13.875-7.578125 20.609374-9.207032 20.742187-4.335937-.832031-8.542968 2.003906-9.386718 6.34375-10.363282 53.210937-41.464844 83.730469-85.335938 83.730469s-74.976562-30.519532-85.335937-83.730469c-.84375-4.316406-5.054688-7.132813-9.371094-6.347656-1.714844-.210938-7.8125-6.945313-9.226563-20.738281-1.417968-13.851563 3.242188-21.6875 4.792969-22.15625 0 0 .058594.007812.1875.054687 2.355469.875 4.980469.59375 7.097657-.753906 6.933593-4.414063.589843-15.289063 7.5-18.460938.785156-.363281 2.847656-1.046875 5.011718.386719 24.550782 16.285156 62.816406 35.992188 105.707032 37.40625 4.378906.144531 8.132812-3.324219 8.28125-7.75.144531-4.425781-3.324219-8.132812-7.753907-8.277344-39.128906-1.292968-74.546875-19.609375-97.367187-34.746094-6.164063-4.085937-13.855469-4.683593-20.578125-1.59375-6.71875 3.089844-11.269531 9.308594-12.179688 16.640626-.066406.546874-.132812 1.101562-.195312 1.65625-5.871094 1.664062-10.769531 6.71875-13.691407 14.261718-2.714843 7.003906-3.695312 15.871094-2.765624 24.96875 1.796874 17.539063 9.914062 30.851563 20.027343 34.28125 4.78125 20.941406 12.902344 39.167969 23.820313 53.570313h-27.988282c-7.003906 0-13.527343-2.78125-18.371093-7.828125-4.808594-5.007813-7.300781-11.578125-7.015625-18.492188 1.382812-33.796875 6.511718-83.125 23.089844-126.203125 19.472656-50.601562 49.734374-79.234375 89.941406-85.097656 4.382812-.636719 7.414062-4.707031 6.777344-9.089844-.640626-4.382812-4.710938-7.414062-9.09375-6.7812498-46.367188 6.7617188-80.882813 38.7968748-102.59375 95.2109378-17.359376 45.113281-22.714844 96.304687-24.148438 131.304687-.460938 11.320313 3.609375 22.066406 11.472656 30.257813 7.894532 8.226562 18.53125 12.757812 29.941406 12.757812h43.191407c3.402343 2.847657 6.976562 5.414063 10.707031 7.703125v5.734375c0 4.460938-1.046875 8.71875-3.117188 12.65625-.007812.011719-.011718.023438-.015624.03125-4.496094 8.523438-13.3125 14.125-23.015626 14.621094-1.574218.078125-3.152343.042969-4.730468.035156-19.984375 0-37.304688 6.265625-51.484375 18.625-11.472657 10.003907-20.710938 24.101563-26.710938 40.769531-.101562.277344-.183593.5625-.253906.851563l-23.105469 96.671875c-2.585937 10.816406-.109375 22.035156 6.792969 30.785156 6.972656 8.835938 17.453125 13.902344 28.753906 13.902344h27.847657c4.429687 0 8.019531-3.589844 8.019531-8.019531 0-4.425781-3.589844-8.019531-8.019531-8.019531h-27.847657c-6.359375 0-12.25-2.84375-16.164062-7.800782-3.84375-4.867187-5.222657-11.109375-3.785157-17.121094l23.003907-96.230468c6.664062-18.265625 23.625-48.375 62.957031-48.375 1.847656.007812 3.699219.035156 5.546875-.058594 11.042969-.5625 21.351563-5.34375 28.921875-13.011719l26 39.007813c4.582031 6.867187 12.257812 10.976562 20.542969 10.984375h.027343c8.273438 0 15.949219-4.089844 20.539063-10.941407l26.066406-38.925781c.207031.210938.394531.433594.605469.636719 5.242188 5.097656 11.71875 8.808594 18.734375 10.734375 5.285156 1.453125 10.320313 1.574219 15.03125 1.574219 33.058594 0 55.75 24.929687 62.910156 48.179687l23.046875 96.425781c1.4375 6.011719.058594 12.253907-3.785156 17.121094-3.910156 4.960938-9.800781 7.800782-16.164062 7.800782h-231.105469c-4.429688 0-8.019531 3.59375-8.019531 8.019531 0 4.429687 3.589843 8.019531 8.019531 8.019531h231.105469c11.300781 0 21.78125-5.066406 28.753906-13.902344 6.902344-8.75 9.378906-19.972656 6.792968-30.789062zm-175.320312-123.824219c-1.628906 2.433594-4.257812 3.828125-7.210938 3.828125h-.011718c-2.957032-.003906-5.585938-1.402344-7.210938-3.84375l-29.839844-44.765625c1.6875-4.355469 2.660157-8.984375 2.878907-13.664063 10.566406 3.890626 22.023437 5.902344 34.152343 5.902344 12.128907 0 23.585938-2.015625 34.152344-5.902344.21875 4.75 1.21875 9.441407 2.953125 13.855469zm0 0"/></svg>